<!--
  @file icons.svg
  خلاصه یک‌خطی: این فایل شامل تمام آیکون‌های SVG استفاده شده در پروژه به صورت symbol است.
  NOTE: Internal asset. این آیکون‌ها از طریق <use href="/icons.svg#icon-name"></use> در فایل‌های HTML استفاده می‌شوند.
  Comments updated by AI: 2025-11-10
-->
<svg xmlns="http://www.w3.org/2000/svg" style="display: none;">

    <!-- Action Icons - آیکون‌های عملیاتی -->

    <!-- آیکون جابجایی (Swap) -->
    <symbol id="icon-swap" viewBox="0 0 24 24" fill="none">
        <path d="M17 10H3L7 6" stroke="currentColor" stroke-width="2" stroke-linecap="round" stroke-linejoin="round" />
        <path d="M7 14H21L17 18" stroke="currentColor" stroke-width="2" stroke-linecap="round"
            stroke-linejoin="round" />
    </symbol>

    <!-- آیکون کپی (Copy) -->
    <symbol id="icon-copy" viewBox="0 0 24 24" fill="none">
        <path
            d="M7 5C7 4.46957 7.21071 3.96086 7.58579 3.58579C7.96086 3.21071 8.46957 3 9 3H19C19.5304 3 20.0391 3.21071 20.4142 3.58579C20.7893 3.96086 21 4.46957 21 5V15C21 15.5304 20.7893 16.0391 20.4142 16.4142C20.0391 16.7893 19.5304 17 19 17H9C8.46957 17 7.96086 16.7893 7.58579 16.4142C7.21071 16.0391 7 15.5304 7 15V5Z"
            stroke="currentColor" stroke-width="2" stroke-linecap="round" stroke-linejoin="round" />
        <path
            d="M17 17V19C17 19.5304 16.7893 20.0391 16.4142 20.4142C16.0391 20.7893 15.5304 21 15 21H5C4.46957 21 3.96086 20.7893 3.58579 20.4142C3.21071 20.0391 3 19.5304 3 19V9C3 8.46957 3.21071 7.96086 3.58579 7.58579C3.96086 7.21071 4.46957 7 5 7H7"
            stroke="currentColor" stroke-width="2" stroke-linecap="round" stroke-linejoin="round" />
    </symbol>

    <!-- آیکون جایگذاری (Paste) -->
    <symbol id="icon-paste" viewBox="0 0 24 24" fill="none">
        <path
            d="M9 5H7C6.46957 5 5.96086 5.21071 5.58579 5.58579C5.21071 5.96086 5 6.46957 5 7V19C5 19.5304 5.21071 20.0391 5.58579 20.4142C5.96086 20.7893 6.46957 21 7 21H17C17.5304 21 18.0391 20.7893 18.4142 20.4142C18.7893 20.0391 19 19.5304 19 19V7C19 6.46957 18.7893 5.96086 18.4142 5.58579C18.0391 5.21071 17.5304 5 17 5H15"
            stroke="currentColor" stroke-width="2" stroke-linecap="round" stroke-linejoin="round" />
        <path
            d="M9 5C9 4.46957 9.21071 3.96086 9.58579 3.58579C9.96086 3.21071 10.4696 3 11 3H13C13.5304 3 14.0391 3.21071 14.4142 3.58579C14.7893 3.96086 15 4.46957 15 5C15 5.53043 14.7893 6.03914 14.4142 6.41421C14.0391 6.78929 13.5304 7 13 7H11C10.4696 7 9.96086 6.78929 9.58579 6.41421C9.21071 6.03914 9 5.53043 9 5Z"
            stroke="currentColor" stroke-width="2" stroke-linecap="round" stroke-linejoin="round" />
    </symbol>

    <!-- آیکون حذف (Delete) -->
    <symbol id="icon-delete" viewBox="0 0 24 24" fill="none">
        <path d="M4 7H20" stroke="currentColor" stroke-width="2" stroke-linecap="round" stroke-linejoin="round" />
        <path d="M10 11V17" stroke="currentColor" stroke-width="2" stroke-linecap="round" stroke-linejoin="round" />
        <path d="M14 11V17" stroke="currentColor" stroke-width="2" stroke-linecap="round" stroke-linejoin="round" />
        <path
            d="M5 7L6 19C6 19.5304 6.21071 20.0391 6.58579 20.4142C6.96086 20.7893 7.46957 21 8 21H16C16.5304 21 17.0391 20.7893 17.4142 20.4142C17.7893 20.0391 18 19.5304 18 19L19 7"
            stroke="currentColor" stroke-width="2" stroke-linecap="round" stroke-linejoin="round" />
        <path
            d="M9 7V4C9 3.73478 9.10536 3.48043 9.29289 3.29289C9.48043 3.10536 9.73478 3 10 3H14C14.2652 3 14.5196 3.10536 14.7071 3.29289C14.8946 3.48043 15 3.73478 15 4V7"
            stroke="currentColor" stroke-width="2" stroke-linecap="round" stroke-linejoin="round" />
    </symbol>

    <!-- آیکون نمایش/چشم (Eye) -->
    <symbol id="icon-eye" viewBox="0 0 24 24" fill="none">
        <path
            d="M10 12C10 12.5304 10.2107 13.0391 10.5858 13.4142C10.9609 13.7893 11.4696 14 12 14C12.5304 14 13.0391 13.7893 13.4142 13.4142C13.7893 13.0391 14 12.5304 14 12C14 11.4696 13.7893 10.9609 13.4142 10.5858C13.0391 10.2107 12.5304 10 12 10C11.4696 10 10.9609 10.2107 10.5858 10.5858C10.2107 10.9609 10 11.4696 10 12Z"
            stroke="currentColor" stroke-width="2" stroke-linecap="round" stroke-linejoin="round" />
        <path d="M21 12C18.6 16 15.6 18 12 18C8.4 18 5.4 16 3 12C5.4 8 8.4 6 12 6C15.6 6 18.6 8 21 12Z"
            stroke="currentColor" stroke-width="2" stroke-linecap="round" stroke-linejoin="round" />
    </symbol>

    <!-- آیکون مخفی/چشم خط‌خورده (Eye Slash) -->
    <symbol id="icon-eye-slash" viewBox="0 0 24 24" fill="none">
        <path
            d="M10.5856 10.5869C10.2105 10.9621 9.99991 11.4708 10 12.0013C10.0001 12.5317 10.2109 13.0404 10.5861 13.4154C10.9612 13.7904 11.47 14.0011 12.0004 14.001C12.5309 14.0009 13.0395 13.7901 13.4146 13.4149"
            stroke="currentColor" stroke-width="2" stroke-linecap="round" stroke-linejoin="round" />
        <path
            d="M16.681 16.673C15.2782 17.5507 13.6547 18.0109 12 18C8.4 18 5.4 16 3 12C4.272 9.88 5.712 8.322 7.32 7.326M10.18 6.18C10.779 6.05873 11.3888 5.99842 12 6C15.6 6 18.6 8 21 12C20.334 13.11 19.621 14.067 18.862 14.87"
            stroke="currentColor" stroke-width="2" stroke-linecap="round" stroke-linejoin="round" />
        <path d="M3 3L21 21" stroke="currentColor" stroke-width="2" stroke-linecap="round" stroke-linejoin="round" />
    </symbol>

    <!-- UI & Navigation Icons - آیکون‌های رابط کاربری و ناوبری -->

    <!-- آیکون بستن (Close) -->
    <symbol id="icon-close" viewBox="0 0 24 24" fill="none">
        <path d="M18 6L6 18" stroke="currentColor" stroke-width="2" stroke-linecap="round" stroke-linejoin="round" />
        <path d="M6 6L18 18" stroke="currentColor" stroke-width="2" stroke-linecap="round" stroke-linejoin="round" />
    </symbol>

    <!-- آیکون راهنما/سوال (Question) -->
    <symbol id="icon-question" viewBox="0 0 24 24" fill="none">
        <path d="M12 21a9 9 0 1 0 0-18 9 9 0 0 0 0 18Z" stroke="currentColor" stroke-width="2" stroke-linecap="round"
            stroke-linejoin="round" />
        <path d="M12 17v.01" stroke="currentColor" stroke-width="2" stroke-linecap="round" stroke-linejoin="round" />
        <path d="M12 13.5a2.25 2.25 0 0 1 1-1.95c.5-.3 1-1.05 1-1.8A2.75 2.75 0 0 0 11.25 7" stroke="currentColor"
            stroke-width="2" stroke-linecap="round" stroke-linejoin="round" />
    </symbol>

    <!-- آیکون فلش به پایین (Arrow Down) -->
    <symbol id="icon-arrow-down" viewBox="0 0 24 24" fill="none">
        <path
            d="M15.0001 12H18.5861C18.7838 12 18.9771 12.0587 19.1416 12.1686C19.306 12.2785 19.4341 12.4346 19.5098 12.6173C19.5854 12.8 19.6052 13.0011 19.5667 13.195C19.5281 13.389 19.4329 13.5671 19.2931 13.707L12.7071 20.293C12.5196 20.4805 12.2653 20.5858 12.0001 20.5858C11.7349 20.5858 11.4806 20.4805 11.2931 20.293L4.70709 13.707C4.56728 13.5671 4.47208 13.389 4.43351 13.195C4.39494 13.0011 4.41475 12.8 4.49042 12.6173C4.56609 12.4346 4.69423 12.2785 4.85864 12.1686C5.02305 12.0587 5.21634 12 5.41409 12H9.00009V9H15.0001V12Z"
            stroke="currentColor" stroke-width="2" stroke-linecap="round" stroke-linejoin="round" />
        <path d="M15 3H9" stroke="currentColor" stroke-width="2" stroke-linecap="round" stroke-linejoin="round" />
        <path d="M15 6H9" stroke="currentColor" stroke-width="2" stroke-linecap="round" stroke-linejoin="round" />
    </symbol>

    <!-- Feedback & Status Icons - آیکون‌های بازخورد و وضعیت -->

    <!-- آیکون تیک/تایید (Check) -->
    <symbol id="icon-check" viewBox="0 0 24 24" fill="none">
        <path d="M5 12L10 17L20 7" stroke="currentColor" stroke-width="2" stroke-linecap="round"
            stroke-linejoin="round" />
    </symbol>

    <!-- آیکون اسپینر/بارگذاری (Spinner) -->
    <symbol id="icon-spinner" viewBox="0 0 24 24" fill="none">
        <path d="M12 6V3" stroke="currentColor" stroke-width="2" stroke-linecap="round" stroke-linejoin="round" />
        <path d="M16.25 7.74961L18.4 5.59961" stroke="currentColor" stroke-width="2" stroke-linecap="round"
            stroke-linejoin="round" />
        <path d="M18 12H21" stroke="currentColor" stroke-width="2" stroke-linecap="round" stroke-linejoin="round" />
        <path d="M16.25 16.25L18.4 18.4" stroke="currentColor" stroke-width="2" stroke-linecap="round"
            stroke-linejoin="round" />
        <path d="M12 18V21" stroke="currentColor" stroke-width="2" stroke-linecap="round" stroke-linejoin="round" />
        <path d="M7.75156 16.25L5.60156 18.4" stroke="currentColor" stroke-width="2" stroke-linecap="round"
            stroke-linejoin="round" />
        <path d="M6 12H3" stroke="currentColor" stroke-width="2" stroke-linecap="round" stroke-linejoin="round" />
        <path d="M7.75156 7.74961L5.60156 5.59961" stroke="currentColor" stroke-width="2" stroke-linecap="round"
            stroke-linejoin="round" />
    </symbol>

    <!-- Theme Icons - آیکون‌های تم -->

    <!-- آیکون خورشید (تم روشن) -->
    <symbol id="icon-sun" viewBox="0 0 24 24" fill="none">
        <path
            d="M8 12C8 13.0609 8.42143 14.0783 9.17157 14.8284C9.92172 15.5786 10.9391 16 12 16C13.0609 16 14.0783 15.5786 14.8284 14.8284C15.5786 14.0783 16 13.0609 16 12C16 10.9391 15.5786 9.92172 14.8284 9.17157C14.0783 8.42143 13.0609 8 12 8C10.9391 8 9.92172 8.42143 9.17157 9.17157C8.42143 9.92172 8 10.9391 8 12Z"
            stroke="currentColor" stroke-width="2" stroke-linecap="round" stroke-linejoin="round" />
        <path
            d="M3 12H4M12 3V4M20 12H21M12 20V21M5.6 5.6L6.3 6.3M18.4 5.6L17.7 6.3M17.7 17.7L18.4 18.4M6.3 17.7L5.6 18.4"
            stroke="currentColor" stroke-width="2" stroke-linecap="round" stroke-linejoin="round" />
    </symbol>

    <!-- آیکون ماه (تم تاریک) -->
    <symbol id="icon-moon" viewBox="0 0 24 24" fill="none">
        <path
            d="M12.0017 3.00019C12.1337 3.00019 12.2647 3.00019 12.3947 3.00019C11.1101 4.19389 10.2843 5.80003 10.061 7.53941C9.83772 9.27879 10.231 11.0414 11.1725 12.5209C12.1139 14.0004 13.5441 15.1032 15.2143 15.6377C16.8846 16.1721 18.6893 16.1043 20.3147 15.4462C19.6895 16.9507 18.6675 18.2572 17.3579 19.2264C16.0483 20.1957 14.5002 20.7912 12.8786 20.9496C11.2571 21.1079 9.623 20.8231 8.15062 20.1256C6.67825 19.428 5.42285 18.3439 4.51832 16.9888C3.6138 15.6337 3.09409 14.0585 3.01462 12.4312C2.93515 10.8038 3.29892 9.18548 4.06711 7.7487C4.8353 6.31192 5.9791 5.11061 7.3765 4.27292C8.7739 3.43523 10.3725 2.99258 12.0017 2.99219V3.00019Z"
            stroke="currentColor" stroke-width="2" stroke-linecap="round" stroke-linejoin="round" />
    </symbol>

    <!-- آیکون موبایل (تم سیستم) -->
    <symbol id="icon-system-mobile" viewBox="0 0 24 24" fill="none">
        <path
            d="M6 5C6 4.46957 6.21071 3.96086 6.58579 3.58579C6.96086 3.21071 7.46957 3 8 3H16C16.5304 3 17.0391 3.21071 17.4142 3.58579C17.7893 3.96086 18 4.46957 18 5V19C18 19.5304 17.7893 20.0391 17.4142 20.4142C17.0391 20.7893 16.5304 21 16 21H8C7.46957 21 6.96086 20.7893 6.58579 20.4142C6.21071 20.0391 6 19.5304 6 19V5Z"
            stroke="currentColor" stroke-width="2" stroke-linecap="round" stroke-linejoin="round" />
        <path d="M11 4H13" stroke="currentColor" stroke-width="2" stroke-linecap="round" stroke-linejoin="round" />
        <path d="M12 17V17.01" stroke="currentColor" stroke-width="2" stroke-linecap="round" stroke-linejoin="round" />
    </symbol>

    <!-- آیکون تبلت -->
    <symbol id="icon-system-tablet" viewBox="0 0 24 24" fill="none">
        <path
            d="M5 4C5 3.73478 5.10536 3.48043 5.29289 3.29289C5.48043 3.10536 5.73478 3 6 3H18C18.2652 3 18.5196 3.10536 18.7071 3.29289C18.8946 3.48043 19 3.73478 19 4V20C19 20.2652 18.8946 20.5196 18.7071 20.7071C18.5196 20.8946 18.2652 21 18 21H6C5.73478 21 5.48043 20.8946 5.29289 20.7071C5.10536 20.5196 5 20.2652 5 20V4Z"
            stroke="currentColor" stroke-width="2" stroke-linecap="round" stroke-linejoin="round" />
        <path
            d="M11 17C11 17.2652 11.1054 17.5196 11.2929 17.7071C11.4804 17.8946 11.7348 18 12 18C12.2652 18 12.5196 17.8946 12.7071 17.7071C12.8946 17.5196 13 17.2652 13 17C13 16.7348 12.8946 16.4804 12.7071 16.2929C12.5196 16.1054 12.2652 16 12 16C11.7348 16 11.4804 16.1054 11.2929 16.2929C11.1054 16.4804 11 16.7348 11 17Z"
            stroke="currentColor" stroke-width="2" stroke-linecap="round" stroke-linejoin="round" />
    </symbol>

    <!-- آیکون دسکتاپ -->
    <symbol id="icon-system-desktop" viewBox="0 0 24 24" fill="none">
        <path
            d="M3 5C3 4.73478 3.10536 4.48043 3.29289 4.29289C3.48043 4.10536 3.73478 4 4 4H20C20.2652 4 20.5196 4.10536 20.7071 4.29289C20.8946 4.48043 21 4.73478 21 5V15C21 15.2652 20.8946 15.5196 20.7071 15.7071C20.5196 15.8946 20.2652 16 20 16H4C3.73478 16 3.48043 15.8946 3.29289 15.7071C3.10536 15.5196 3 15.2652 3 15V5Z"
            stroke="currentColor" stroke-width="2" stroke-linecap="round" stroke-linejoin="round" />
        <path d="M7 20H17" stroke="currentColor" stroke-width="2" stroke-linecap="round" stroke-linejoin="round" />
        <path d="M9 16V20" stroke="currentColor" stroke-width="2" stroke-linecap="round" stroke-linejoin="round" />
        <path d="M15 16V20" stroke="currentColor" stroke-width="2" stroke-linecap="round" stroke-linejoin="round" />
    </symbol>

</svg>